<?xml version="1.0" encoding="iso-8859-1"?>
<!-- Generator: Adobe Illustrator 22.1.0, SVG Export Plug-In . SVG Version: 6.00 Build 0)  -->
<svg version="1.1" id="&#x56FE;&#x5C42;_1" xmlns="http://www.w3.org/2000/svg" xmlns:xlink="http://www.w3.org/1999/xlink" x="0px"
	 y="0px" viewBox="0 0 800 800" style="enable-background:new 0 0 800 800;" xml:space="preserve">
<g>
	<path style="fill:#0079FE;" d="M618.899,657H181.101C160.059,657,143,639.941,143,618.899V181.101
		C143,160.059,160.059,143,181.101,143h437.797C639.941,143,657,160.059,657,181.101v437.797C657,639.941,639.941,657,618.899,657z"
		/>
	<g>
		<path style="fill:none;stroke:#FFFFFF;stroke-width:17.3606;stroke-linecap:round;stroke-miterlimit:10;" d="M620.172,368.115
			L410.11,186.974c-5.416-4.671-14.804-4.671-20.22,0L179.827,368.115"/>
		<path style="fill:none;stroke:#FFFFFF;stroke-width:16.8531;stroke-linecap:round;stroke-miterlimit:10;" d="M398.106,520.978
			c0,0,5.766,146.82-110.715,76.47"/>
		<path style="fill:none;stroke:#FFFFFF;stroke-width:10;stroke-linecap:round;stroke-miterlimit:10;" d="M291.971,576.024
			c0,14.954-11.827,27.078-26.416,27.078c-14.589,0-26.415-12.123-26.415-27.078c0-14.954,11.827-27.078,26.415-27.078
			C280.145,548.947,291.971,561.07,291.971,576.024z"/>
		<g>
			<path style="fill:#C60521;" d="M437.172,440.734h-66.679c-7.836,0-14.188-6.351-14.188-14.187l0,0
				c0-7.836,6.352-14.187,14.188-14.187h66.679c7.836,0,14.187,6.351,14.187,14.187l0,0
				C451.359,434.383,445.008,440.734,437.172,440.734z"/>
			<path style="fill:#C60521;" d="M388.226,469.463v-83.881c0-7.836,6.352-14.187,14.188-14.187l0,0
				c7.835,0,14.187,6.351,14.187,14.187v83.881c0,7.835-6.352,14.187-14.187,14.187l0,0
				C394.578,483.65,388.226,477.298,388.226,469.463z"/>
		</g>
		<path style="fill:none;stroke:#FFFFFF;stroke-width:17.1428;stroke-linecap:round;stroke-miterlimit:10;" d="M458.119,514.523
			H349.545c-20.125,0-36.439-16.315-36.439-36.439V376.962c0-20.125,16.315-36.439,36.439-36.439h108.574
			c20.125,0,36.439,16.315,36.439,36.439v101.121C494.559,498.208,478.244,514.523,458.119,514.523z"/>
	</g>
</g>
</svg>
